<?xml version="1.0" encoding="utf-8"?>
<!-- Generator: Adobe Illustrator 14.0.0, SVG Export Plug-In . SVG Version: 6.00 Build 43363)  -->
<!DOCTYPE svg PUBLIC "-//W3C//DTD SVG 1.1//EN" "http://www.w3.org/Graphics/SVG/1.1/DTD/svg11.dtd">
<svg version="1.1"
	 id="svg2" xmlns:rdf="http://www.w3.org/1999/02/22-rdf-syntax-ns#" xmlns:dc="http://purl.org/dc/elements/1.1/" xmlns:cc="http://creativecommons.org/ns#" xmlns:svg="http://www.w3.org/2000/svg"
	 xmlns="http://www.w3.org/2000/svg" xmlns:xlink="http://www.w3.org/1999/xlink" x="0px" y="0px" width="400px" height="300px"
	 viewBox="0 0 400 300" enable-background="new 0 0 400 300" xml:space="preserve">
<g id="g10" transform="matrix(1.3333333,0,0,-1.3333333,0,65.333333)">
	<g id="g12" transform="scale(0.1)">
		<path id="path14" fill="#0071C5" d="M1444.173-1311.86c-500.999-46.208-1023.069,26.572-1096.267,418.11
			c-35.728,192.935,52.295,397.584,168.889,524.791v67.947c-210.007-184.303-323.87-417.411-258.281-692.897
			c83.76-353.152,531.702-553.279,1215.791-486.856c270.645,26.279,624.8,113.357,871.121,248.635v192.034
			C2121.773-1173.228,1752.091-1283.252,1444.173-1311.86z M2763.785-296.475c-118.821,580.104-1245.22,616.952-1971.233,174.91
			v-48.787c725.2,372.85,1753.953,370.631,1847.586-163.824c31.487-176.693-68.101-360.89-246.028-466.901v-138.779
			C2608.087-861.311,2827.586-607.41,2763.785-296.475"/>
		<path id="path16" fill="#0071C5" d="M2304.835-212.048h-131.331v-584.898c0-68.467,33.135-128.181,131.331-137.644V-212.048"/>
		<path id="path18" fill="#0071C5" d="M740.975-425.615H609.373l-0.154-382.061c0-68.899,33.303-128.445,131.755-137.805V-425.615"
			/>
		<path id="path20" fill="#0071C5" d="M609.373-354.241h131.213v124.449H609.373V-354.241z"/>
		<path id="path22" fill="#0071C5" d="M1527.501-939.446c-106.282,0-151.282,74.033-151.282,146.777v507.459h130.269v-140.405
			h98.057v-105.081h-98.057v-254.026c0-29.553,14.011-46.216,44.956-46.216h53.101v-108.508H1527.501"/>
		<path id="path24" fill="#0071C5" d="M1767.098-723.213c0-66.592,41.697-115.562,115.371-115.562
			c57.788,0,86.257,15.938,119.678,48.97l80.457-76.611c-51.577-51.006-105.623-81.951-201.087-81.951
			c-124.6,0-243.992,67.947-243.992,266.272c0,169.42,104.407,265.298,241.106,265.298c139.043,0,218.98-112.251,218.98-259.395
			v-47.029h-330.513 M1873.006-524.507c-44.561,0-78.801-22.95-93.398-53.895c-8.379-18.695-11.55-33.186-12.51-55.983h200.647
			C1965.269-578.406,1939.825-524.507,1873.006-524.507"/>
		<path id="path26" fill="#0071C5" d="M1094.552-530.696c38.24,0,54.089-18.849,54.089-49.512v-359.934h130.225v360.634
			c0,73.18-38.943,153.765-153.355,153.765l-268.982,0.128v-514.526h130.364v409.446H1094.552"/>
		<path id="path28" fill="#0071C5" d="M2446.222-316.587c-29.011,0-52.112,23.39-52.112,52.295
			c0,28.883,23.101,52.244,52.112,52.244c28.726,0,52.375-23.361,52.375-52.244C2498.597-293.201,2474.947-316.587,2446.222-316.587
			z M2446.222-220.713c-23.958,0-43.059-19.673-43.059-43.579c0-23.928,19.102-43.323,43.059-43.323
			c23.804,0,43.579,19.395,43.579,43.323C2489.801-240.386,2470.025-220.713,2446.222-220.713z M2469.3-295.519h-9.749
			c-0.82,0-1.648,0.568-1.934,1.238l-13.198,22.434c-0.388,0.568-1.523,1.084-1.882,1.084c0,0-2.219,0-3.896,0
			c-0.952,0-1.78,0-2.19,0v-22.434c0-1.084-0.674-2.322-2.219-2.322h-8.796c-1.208,0-2.19,1.238-2.19,2.322v56.55
			c0,3.3,1.113,4.691,3.999,5.054c3.171,0.308,11.396,0.721,16.091,0.721c16.216,0,25.84-4.823,25.84-19.937v-1.106
			c0-9.36-4.673-14.443-11.836-16.633l13.77-23.386c0.278-0.417,0.41-1.263,0.41-1.655
			C2471.52-294.567,2470.978-295.519,2469.3-295.519z M2456.666-250.808c0,6.321-3.816,8.383-12.246,8.383c-1.084,0-3.845,0-6.064,0
			c-0.923,0-1.904,0-2.314,0v-18.029c1.392,0,7.295-0.278,8.379-0.278c8.43,0,12.246,2.886,12.246,8.818V-250.808"/>
	</g>
</g>
</svg>
